# xmcd CD database file
#
# Track frame offsets:
#	150
#	10497
#	21087
#	32562
#	47042
#	56395
#	66977
#	77387
#	88475
#	100227
#	110500
#	121297
#	131035
#	143995
#	155575
#	168230
#
# Disc length: 2358 seconds
#
# Revision: 0
# Processed by: cddbd v1.4PL0 Copyright (c) Steve Scherf et al.
# Submitted via: CDex 1.40Beta8
#
DISCID=d6093410
DTITLE=Patsy Cline - Too Many Secrets
DYEAR=1900
DGENRE=Country
TTITLE0=Too Many Secrets
TTITLE1=I Don't Wanna
TTITLE2=I've Loved And Lost Again
TTITLE3=Then You'll Know
TTITLE4=Love' Love' Love Me Honey Do
TTITLE5=Gotta Lot Of Rhythm
TTITLE6=I Love You Honey
TTITLE7=Just Out Of Reach
TTITLE8=Never No More
TTITLE9=Walking Dream
TTITLE10=I Can't Forget
TTITLE11=I'm Blue Again
TTITLE12=If I Could See The World
TTITLE13=Let The Teardrops Fall
TTITLE14=Just A Closer Walk With Thee
TTITLE15=Try Again
EXTD=ID3G: 2
EXTT0=
EXTT1=
EXTT2=
EXTT3=
EXTT4=
EXTT5=
EXTT6=
EXTT7=
EXTT8=
EXTT9=
EXTT10=
EXTT11=
EXTT12=
EXTT13=
EXTT14=
EXTT15=
PLAYORDER=
